<mxfile host="app.diagrams.net" modified="2023-09-30T18:05:34.267Z" agent="Mozilla/5.0 (Windows NT 10.0; Win64; x64) AppleWebKit/537.36 (KHTML, like Gecko) Chrome/117.0.0.0 Safari/537.36" etag="n6TdXrJA_LaL7Nm-0gkK" version="22.0.0" type="device">
  <diagram name="Trang-1" id="ZPdU82tGEfJm2v0xorDK">
    <mxGraphModel dx="1468" dy="926" grid="1" gridSize="10" guides="1" tooltips="1" connect="1" arrows="1" fold="1" page="1" pageScale="1" pageWidth="827" pageHeight="1169" math="0" shadow="0">
      <root>
        <mxCell id="0" />
        <mxCell id="1" parent="0" />
        <mxCell id="BXSqrhUL6-4AqQqkL2Um-70" value="6 , 9 , 5 , 4 , 12 , 18 , 1, 7 , 8 , 11" style="text;html=1;strokeColor=none;fillColor=none;align=center;verticalAlign=middle;whiteSpace=wrap;rounded=0;" vertex="1" parent="1">
          <mxGeometry x="128" y="60" width="390" height="30" as="geometry" />
        </mxCell>
        <mxCell id="BXSqrhUL6-4AqQqkL2Um-72" value="6" style="ellipse;whiteSpace=wrap;html=1;" vertex="1" parent="1">
          <mxGeometry x="50" y="160" width="40" height="30" as="geometry" />
        </mxCell>
        <mxCell id="BXSqrhUL6-4AqQqkL2Um-73" value="" style="shape=flexArrow;endArrow=classic;html=1;rounded=0;" edge="1" parent="1">
          <mxGeometry width="50" height="50" relative="1" as="geometry">
            <mxPoint x="100" y="175" as="sourcePoint" />
            <mxPoint x="150" y="175" as="targetPoint" />
          </mxGeometry>
        </mxCell>
        <mxCell id="BXSqrhUL6-4AqQqkL2Um-76" style="edgeStyle=orthogonalEdgeStyle;rounded=0;orthogonalLoop=1;jettySize=auto;html=1;exitX=1;exitY=0.5;exitDx=0;exitDy=0;entryX=0.5;entryY=0;entryDx=0;entryDy=0;" edge="1" parent="1" source="BXSqrhUL6-4AqQqkL2Um-74" target="BXSqrhUL6-4AqQqkL2Um-75">
          <mxGeometry relative="1" as="geometry" />
        </mxCell>
        <mxCell id="BXSqrhUL6-4AqQqkL2Um-74" value="6" style="ellipse;whiteSpace=wrap;html=1;" vertex="1" parent="1">
          <mxGeometry x="190" y="160" width="40" height="30" as="geometry" />
        </mxCell>
        <mxCell id="BXSqrhUL6-4AqQqkL2Um-75" value="9" style="ellipse;whiteSpace=wrap;html=1;" vertex="1" parent="1">
          <mxGeometry x="230" y="200" width="40" height="30" as="geometry" />
        </mxCell>
        <mxCell id="BXSqrhUL6-4AqQqkL2Um-80" style="edgeStyle=orthogonalEdgeStyle;rounded=0;orthogonalLoop=1;jettySize=auto;html=1;exitX=1;exitY=0.5;exitDx=0;exitDy=0;entryX=0.5;entryY=0;entryDx=0;entryDy=0;" edge="1" parent="1" source="BXSqrhUL6-4AqQqkL2Um-81" target="BXSqrhUL6-4AqQqkL2Um-82">
          <mxGeometry relative="1" as="geometry" />
        </mxCell>
        <mxCell id="BXSqrhUL6-4AqQqkL2Um-84" style="edgeStyle=orthogonalEdgeStyle;rounded=0;orthogonalLoop=1;jettySize=auto;html=1;exitX=0;exitY=0.5;exitDx=0;exitDy=0;entryX=0.5;entryY=0;entryDx=0;entryDy=0;" edge="1" parent="1" source="BXSqrhUL6-4AqQqkL2Um-81" target="BXSqrhUL6-4AqQqkL2Um-83">
          <mxGeometry relative="1" as="geometry" />
        </mxCell>
        <mxCell id="BXSqrhUL6-4AqQqkL2Um-81" value="6" style="ellipse;whiteSpace=wrap;html=1;" vertex="1" parent="1">
          <mxGeometry x="375" y="160" width="40" height="30" as="geometry" />
        </mxCell>
        <mxCell id="BXSqrhUL6-4AqQqkL2Um-82" value="9" style="ellipse;whiteSpace=wrap;html=1;" vertex="1" parent="1">
          <mxGeometry x="415" y="200" width="40" height="30" as="geometry" />
        </mxCell>
        <mxCell id="BXSqrhUL6-4AqQqkL2Um-83" value="5" style="ellipse;whiteSpace=wrap;html=1;" vertex="1" parent="1">
          <mxGeometry x="340" y="200" width="40" height="30" as="geometry" />
        </mxCell>
        <mxCell id="BXSqrhUL6-4AqQqkL2Um-85" value="" style="shape=flexArrow;endArrow=classic;html=1;rounded=0;" edge="1" parent="1">
          <mxGeometry width="50" height="50" relative="1" as="geometry">
            <mxPoint x="280" y="174.5" as="sourcePoint" />
            <mxPoint x="330" y="174.5" as="targetPoint" />
          </mxGeometry>
        </mxCell>
        <mxCell id="BXSqrhUL6-4AqQqkL2Um-86" style="edgeStyle=orthogonalEdgeStyle;rounded=0;orthogonalLoop=1;jettySize=auto;html=1;exitX=1;exitY=0.5;exitDx=0;exitDy=0;entryX=0.5;entryY=0;entryDx=0;entryDy=0;" edge="1" parent="1" source="BXSqrhUL6-4AqQqkL2Um-88" target="BXSqrhUL6-4AqQqkL2Um-89">
          <mxGeometry relative="1" as="geometry" />
        </mxCell>
        <mxCell id="BXSqrhUL6-4AqQqkL2Um-87" style="edgeStyle=orthogonalEdgeStyle;rounded=0;orthogonalLoop=1;jettySize=auto;html=1;exitX=0;exitY=0.5;exitDx=0;exitDy=0;entryX=0.5;entryY=0;entryDx=0;entryDy=0;" edge="1" parent="1" source="BXSqrhUL6-4AqQqkL2Um-88" target="BXSqrhUL6-4AqQqkL2Um-90">
          <mxGeometry relative="1" as="geometry" />
        </mxCell>
        <mxCell id="BXSqrhUL6-4AqQqkL2Um-88" value="6" style="ellipse;whiteSpace=wrap;html=1;" vertex="1" parent="1">
          <mxGeometry x="565" y="160" width="40" height="30" as="geometry" />
        </mxCell>
        <mxCell id="BXSqrhUL6-4AqQqkL2Um-89" value="9" style="ellipse;whiteSpace=wrap;html=1;" vertex="1" parent="1">
          <mxGeometry x="605" y="200" width="40" height="30" as="geometry" />
        </mxCell>
        <mxCell id="BXSqrhUL6-4AqQqkL2Um-92" style="edgeStyle=orthogonalEdgeStyle;rounded=0;orthogonalLoop=1;jettySize=auto;html=1;exitX=0;exitY=0.5;exitDx=0;exitDy=0;entryX=0.5;entryY=0;entryDx=0;entryDy=0;" edge="1" parent="1" source="BXSqrhUL6-4AqQqkL2Um-90" target="BXSqrhUL6-4AqQqkL2Um-91">
          <mxGeometry relative="1" as="geometry" />
        </mxCell>
        <mxCell id="BXSqrhUL6-4AqQqkL2Um-90" value="5" style="ellipse;whiteSpace=wrap;html=1;" vertex="1" parent="1">
          <mxGeometry x="530" y="200" width="40" height="30" as="geometry" />
        </mxCell>
        <mxCell id="BXSqrhUL6-4AqQqkL2Um-91" value="4" style="ellipse;whiteSpace=wrap;html=1;" vertex="1" parent="1">
          <mxGeometry x="500" y="250" width="40" height="30" as="geometry" />
        </mxCell>
        <mxCell id="BXSqrhUL6-4AqQqkL2Um-93" value="" style="shape=flexArrow;endArrow=classic;html=1;rounded=0;" edge="1" parent="1">
          <mxGeometry width="50" height="50" relative="1" as="geometry">
            <mxPoint x="470" y="174.5" as="sourcePoint" />
            <mxPoint x="520" y="174.5" as="targetPoint" />
          </mxGeometry>
        </mxCell>
        <mxCell id="BXSqrhUL6-4AqQqkL2Um-94" style="edgeStyle=orthogonalEdgeStyle;rounded=0;orthogonalLoop=1;jettySize=auto;html=1;exitX=1;exitY=0.5;exitDx=0;exitDy=0;entryX=0.5;entryY=0;entryDx=0;entryDy=0;" edge="1" parent="1" source="BXSqrhUL6-4AqQqkL2Um-96" target="BXSqrhUL6-4AqQqkL2Um-97">
          <mxGeometry relative="1" as="geometry" />
        </mxCell>
        <mxCell id="BXSqrhUL6-4AqQqkL2Um-95" style="edgeStyle=orthogonalEdgeStyle;rounded=0;orthogonalLoop=1;jettySize=auto;html=1;exitX=0;exitY=0.5;exitDx=0;exitDy=0;entryX=0.5;entryY=0;entryDx=0;entryDy=0;" edge="1" parent="1" source="BXSqrhUL6-4AqQqkL2Um-96" target="BXSqrhUL6-4AqQqkL2Um-99">
          <mxGeometry relative="1" as="geometry" />
        </mxCell>
        <mxCell id="BXSqrhUL6-4AqQqkL2Um-96" value="6" style="ellipse;whiteSpace=wrap;html=1;" vertex="1" parent="1">
          <mxGeometry x="125" y="320" width="40" height="30" as="geometry" />
        </mxCell>
        <mxCell id="BXSqrhUL6-4AqQqkL2Um-103" style="edgeStyle=orthogonalEdgeStyle;rounded=0;orthogonalLoop=1;jettySize=auto;html=1;exitX=1;exitY=0.5;exitDx=0;exitDy=0;entryX=0.5;entryY=0;entryDx=0;entryDy=0;" edge="1" parent="1" source="BXSqrhUL6-4AqQqkL2Um-97" target="BXSqrhUL6-4AqQqkL2Um-102">
          <mxGeometry relative="1" as="geometry" />
        </mxCell>
        <mxCell id="BXSqrhUL6-4AqQqkL2Um-97" value="9" style="ellipse;whiteSpace=wrap;html=1;" vertex="1" parent="1">
          <mxGeometry x="165" y="360" width="40" height="30" as="geometry" />
        </mxCell>
        <mxCell id="BXSqrhUL6-4AqQqkL2Um-98" style="edgeStyle=orthogonalEdgeStyle;rounded=0;orthogonalLoop=1;jettySize=auto;html=1;exitX=0;exitY=0.5;exitDx=0;exitDy=0;entryX=0.5;entryY=0;entryDx=0;entryDy=0;" edge="1" parent="1" source="BXSqrhUL6-4AqQqkL2Um-99" target="BXSqrhUL6-4AqQqkL2Um-100">
          <mxGeometry relative="1" as="geometry" />
        </mxCell>
        <mxCell id="BXSqrhUL6-4AqQqkL2Um-99" value="5" style="ellipse;whiteSpace=wrap;html=1;" vertex="1" parent="1">
          <mxGeometry x="90" y="360" width="40" height="30" as="geometry" />
        </mxCell>
        <mxCell id="BXSqrhUL6-4AqQqkL2Um-100" value="4" style="ellipse;whiteSpace=wrap;html=1;" vertex="1" parent="1">
          <mxGeometry x="60" y="410" width="40" height="30" as="geometry" />
        </mxCell>
        <mxCell id="BXSqrhUL6-4AqQqkL2Um-101" value="" style="shape=flexArrow;endArrow=classic;html=1;rounded=0;" edge="1" parent="1">
          <mxGeometry width="50" height="50" relative="1" as="geometry">
            <mxPoint x="30" y="334.5" as="sourcePoint" />
            <mxPoint x="80" y="334.5" as="targetPoint" />
          </mxGeometry>
        </mxCell>
        <mxCell id="BXSqrhUL6-4AqQqkL2Um-102" value="12" style="ellipse;whiteSpace=wrap;html=1;" vertex="1" parent="1">
          <mxGeometry x="220" y="410" width="40" height="30" as="geometry" />
        </mxCell>
        <mxCell id="BXSqrhUL6-4AqQqkL2Um-105" style="edgeStyle=orthogonalEdgeStyle;rounded=0;orthogonalLoop=1;jettySize=auto;html=1;exitX=1;exitY=0.5;exitDx=0;exitDy=0;entryX=0.5;entryY=0;entryDx=0;entryDy=0;" edge="1" parent="1" source="BXSqrhUL6-4AqQqkL2Um-107" target="BXSqrhUL6-4AqQqkL2Um-109">
          <mxGeometry relative="1" as="geometry" />
        </mxCell>
        <mxCell id="BXSqrhUL6-4AqQqkL2Um-106" style="edgeStyle=orthogonalEdgeStyle;rounded=0;orthogonalLoop=1;jettySize=auto;html=1;exitX=0;exitY=0.5;exitDx=0;exitDy=0;entryX=0.5;entryY=0;entryDx=0;entryDy=0;" edge="1" parent="1" source="BXSqrhUL6-4AqQqkL2Um-107" target="BXSqrhUL6-4AqQqkL2Um-111">
          <mxGeometry relative="1" as="geometry" />
        </mxCell>
        <mxCell id="BXSqrhUL6-4AqQqkL2Um-107" value="6" style="ellipse;whiteSpace=wrap;html=1;" vertex="1" parent="1">
          <mxGeometry x="375" y="315" width="40" height="30" as="geometry" />
        </mxCell>
        <mxCell id="BXSqrhUL6-4AqQqkL2Um-108" style="edgeStyle=orthogonalEdgeStyle;rounded=0;orthogonalLoop=1;jettySize=auto;html=1;exitX=1;exitY=0.5;exitDx=0;exitDy=0;entryX=0.5;entryY=0;entryDx=0;entryDy=0;" edge="1" parent="1" source="BXSqrhUL6-4AqQqkL2Um-109" target="BXSqrhUL6-4AqQqkL2Um-114">
          <mxGeometry relative="1" as="geometry" />
        </mxCell>
        <mxCell id="BXSqrhUL6-4AqQqkL2Um-109" value="9" style="ellipse;whiteSpace=wrap;html=1;" vertex="1" parent="1">
          <mxGeometry x="415" y="355" width="40" height="30" as="geometry" />
        </mxCell>
        <mxCell id="BXSqrhUL6-4AqQqkL2Um-110" style="edgeStyle=orthogonalEdgeStyle;rounded=0;orthogonalLoop=1;jettySize=auto;html=1;exitX=0;exitY=0.5;exitDx=0;exitDy=0;entryX=0.5;entryY=0;entryDx=0;entryDy=0;" edge="1" parent="1" source="BXSqrhUL6-4AqQqkL2Um-111" target="BXSqrhUL6-4AqQqkL2Um-112">
          <mxGeometry relative="1" as="geometry" />
        </mxCell>
        <mxCell id="BXSqrhUL6-4AqQqkL2Um-111" value="5" style="ellipse;whiteSpace=wrap;html=1;" vertex="1" parent="1">
          <mxGeometry x="340" y="355" width="40" height="30" as="geometry" />
        </mxCell>
        <mxCell id="BXSqrhUL6-4AqQqkL2Um-112" value="4" style="ellipse;whiteSpace=wrap;html=1;" vertex="1" parent="1">
          <mxGeometry x="310" y="405" width="40" height="30" as="geometry" />
        </mxCell>
        <mxCell id="BXSqrhUL6-4AqQqkL2Um-113" value="" style="shape=flexArrow;endArrow=classic;html=1;rounded=0;" edge="1" parent="1">
          <mxGeometry width="50" height="50" relative="1" as="geometry">
            <mxPoint x="280" y="329.5" as="sourcePoint" />
            <mxPoint x="330" y="329.5" as="targetPoint" />
          </mxGeometry>
        </mxCell>
        <mxCell id="BXSqrhUL6-4AqQqkL2Um-116" style="edgeStyle=orthogonalEdgeStyle;rounded=0;orthogonalLoop=1;jettySize=auto;html=1;exitX=1;exitY=0.5;exitDx=0;exitDy=0;entryX=0.5;entryY=0;entryDx=0;entryDy=0;" edge="1" parent="1" source="BXSqrhUL6-4AqQqkL2Um-114" target="BXSqrhUL6-4AqQqkL2Um-115">
          <mxGeometry relative="1" as="geometry" />
        </mxCell>
        <mxCell id="BXSqrhUL6-4AqQqkL2Um-114" value="12" style="ellipse;whiteSpace=wrap;html=1;" vertex="1" parent="1">
          <mxGeometry x="470" y="405" width="40" height="30" as="geometry" />
        </mxCell>
        <mxCell id="BXSqrhUL6-4AqQqkL2Um-115" value="18" style="ellipse;whiteSpace=wrap;html=1;" vertex="1" parent="1">
          <mxGeometry x="510" y="460" width="40" height="30" as="geometry" />
        </mxCell>
        <mxCell id="BXSqrhUL6-4AqQqkL2Um-117" style="edgeStyle=orthogonalEdgeStyle;rounded=0;orthogonalLoop=1;jettySize=auto;html=1;exitX=1;exitY=0.5;exitDx=0;exitDy=0;entryX=0.5;entryY=0;entryDx=0;entryDy=0;" edge="1" parent="1" source="BXSqrhUL6-4AqQqkL2Um-119" target="BXSqrhUL6-4AqQqkL2Um-121">
          <mxGeometry relative="1" as="geometry" />
        </mxCell>
        <mxCell id="BXSqrhUL6-4AqQqkL2Um-118" style="edgeStyle=orthogonalEdgeStyle;rounded=0;orthogonalLoop=1;jettySize=auto;html=1;exitX=0;exitY=0.5;exitDx=0;exitDy=0;entryX=0.5;entryY=0;entryDx=0;entryDy=0;" edge="1" parent="1" source="BXSqrhUL6-4AqQqkL2Um-119" target="BXSqrhUL6-4AqQqkL2Um-123">
          <mxGeometry relative="1" as="geometry" />
        </mxCell>
        <mxCell id="BXSqrhUL6-4AqQqkL2Um-119" value="6" style="ellipse;whiteSpace=wrap;html=1;" vertex="1" parent="1">
          <mxGeometry x="656" y="315" width="40" height="30" as="geometry" />
        </mxCell>
        <mxCell id="BXSqrhUL6-4AqQqkL2Um-120" style="edgeStyle=orthogonalEdgeStyle;rounded=0;orthogonalLoop=1;jettySize=auto;html=1;exitX=1;exitY=0.5;exitDx=0;exitDy=0;entryX=0.5;entryY=0;entryDx=0;entryDy=0;" edge="1" parent="1" source="BXSqrhUL6-4AqQqkL2Um-121" target="BXSqrhUL6-4AqQqkL2Um-127">
          <mxGeometry relative="1" as="geometry" />
        </mxCell>
        <mxCell id="BXSqrhUL6-4AqQqkL2Um-121" value="9" style="ellipse;whiteSpace=wrap;html=1;" vertex="1" parent="1">
          <mxGeometry x="696" y="355" width="40" height="30" as="geometry" />
        </mxCell>
        <mxCell id="BXSqrhUL6-4AqQqkL2Um-122" style="edgeStyle=orthogonalEdgeStyle;rounded=0;orthogonalLoop=1;jettySize=auto;html=1;exitX=0;exitY=0.5;exitDx=0;exitDy=0;entryX=0.5;entryY=0;entryDx=0;entryDy=0;" edge="1" parent="1" source="BXSqrhUL6-4AqQqkL2Um-123" target="BXSqrhUL6-4AqQqkL2Um-124">
          <mxGeometry relative="1" as="geometry" />
        </mxCell>
        <mxCell id="BXSqrhUL6-4AqQqkL2Um-123" value="5" style="ellipse;whiteSpace=wrap;html=1;" vertex="1" parent="1">
          <mxGeometry x="621" y="355" width="40" height="30" as="geometry" />
        </mxCell>
        <mxCell id="BXSqrhUL6-4AqQqkL2Um-130" style="edgeStyle=orthogonalEdgeStyle;rounded=0;orthogonalLoop=1;jettySize=auto;html=1;exitX=0.5;exitY=1;exitDx=0;exitDy=0;entryX=0.5;entryY=0;entryDx=0;entryDy=0;" edge="1" parent="1" source="BXSqrhUL6-4AqQqkL2Um-124" target="BXSqrhUL6-4AqQqkL2Um-129">
          <mxGeometry relative="1" as="geometry" />
        </mxCell>
        <mxCell id="BXSqrhUL6-4AqQqkL2Um-124" value="4" style="ellipse;whiteSpace=wrap;html=1;" vertex="1" parent="1">
          <mxGeometry x="591" y="405" width="40" height="30" as="geometry" />
        </mxCell>
        <mxCell id="BXSqrhUL6-4AqQqkL2Um-125" value="" style="shape=flexArrow;endArrow=classic;html=1;rounded=0;" edge="1" parent="1">
          <mxGeometry width="50" height="50" relative="1" as="geometry">
            <mxPoint x="561" y="329.5" as="sourcePoint" />
            <mxPoint x="611" y="329.5" as="targetPoint" />
          </mxGeometry>
        </mxCell>
        <mxCell id="BXSqrhUL6-4AqQqkL2Um-126" style="edgeStyle=orthogonalEdgeStyle;rounded=0;orthogonalLoop=1;jettySize=auto;html=1;exitX=1;exitY=0.5;exitDx=0;exitDy=0;entryX=0.5;entryY=0;entryDx=0;entryDy=0;" edge="1" parent="1" source="BXSqrhUL6-4AqQqkL2Um-127" target="BXSqrhUL6-4AqQqkL2Um-128">
          <mxGeometry relative="1" as="geometry" />
        </mxCell>
        <mxCell id="BXSqrhUL6-4AqQqkL2Um-127" value="12" style="ellipse;whiteSpace=wrap;html=1;" vertex="1" parent="1">
          <mxGeometry x="751" y="405" width="40" height="30" as="geometry" />
        </mxCell>
        <mxCell id="BXSqrhUL6-4AqQqkL2Um-128" value="18" style="ellipse;whiteSpace=wrap;html=1;" vertex="1" parent="1">
          <mxGeometry x="800" y="460" width="40" height="30" as="geometry" />
        </mxCell>
        <mxCell id="BXSqrhUL6-4AqQqkL2Um-129" value="1" style="ellipse;whiteSpace=wrap;html=1;" vertex="1" parent="1">
          <mxGeometry x="580" y="460" width="40" height="30" as="geometry" />
        </mxCell>
        <mxCell id="BXSqrhUL6-4AqQqkL2Um-131" style="edgeStyle=orthogonalEdgeStyle;rounded=0;orthogonalLoop=1;jettySize=auto;html=1;exitX=1;exitY=0.5;exitDx=0;exitDy=0;entryX=0.5;entryY=0;entryDx=0;entryDy=0;" edge="1" parent="1" source="BXSqrhUL6-4AqQqkL2Um-133" target="BXSqrhUL6-4AqQqkL2Um-135">
          <mxGeometry relative="1" as="geometry" />
        </mxCell>
        <mxCell id="BXSqrhUL6-4AqQqkL2Um-132" style="edgeStyle=orthogonalEdgeStyle;rounded=0;orthogonalLoop=1;jettySize=auto;html=1;exitX=0;exitY=0.5;exitDx=0;exitDy=0;entryX=0.5;entryY=0;entryDx=0;entryDy=0;" edge="1" parent="1" source="BXSqrhUL6-4AqQqkL2Um-133" target="BXSqrhUL6-4AqQqkL2Um-137">
          <mxGeometry relative="1" as="geometry" />
        </mxCell>
        <mxCell id="BXSqrhUL6-4AqQqkL2Um-133" value="6" style="ellipse;whiteSpace=wrap;html=1;" vertex="1" parent="1">
          <mxGeometry x="135" y="490" width="40" height="30" as="geometry" />
        </mxCell>
        <mxCell id="BXSqrhUL6-4AqQqkL2Um-134" style="edgeStyle=orthogonalEdgeStyle;rounded=0;orthogonalLoop=1;jettySize=auto;html=1;exitX=1;exitY=0.5;exitDx=0;exitDy=0;entryX=0.5;entryY=0;entryDx=0;entryDy=0;" edge="1" parent="1" source="BXSqrhUL6-4AqQqkL2Um-135" target="BXSqrhUL6-4AqQqkL2Um-142">
          <mxGeometry relative="1" as="geometry" />
        </mxCell>
        <mxCell id="BXSqrhUL6-4AqQqkL2Um-146" style="edgeStyle=orthogonalEdgeStyle;rounded=0;orthogonalLoop=1;jettySize=auto;html=1;exitX=0;exitY=0.5;exitDx=0;exitDy=0;entryX=0.5;entryY=0;entryDx=0;entryDy=0;" edge="1" parent="1" source="BXSqrhUL6-4AqQqkL2Um-135" target="BXSqrhUL6-4AqQqkL2Um-145">
          <mxGeometry relative="1" as="geometry" />
        </mxCell>
        <mxCell id="BXSqrhUL6-4AqQqkL2Um-135" value="9" style="ellipse;whiteSpace=wrap;html=1;" vertex="1" parent="1">
          <mxGeometry x="175" y="530" width="40" height="30" as="geometry" />
        </mxCell>
        <mxCell id="BXSqrhUL6-4AqQqkL2Um-136" style="edgeStyle=orthogonalEdgeStyle;rounded=0;orthogonalLoop=1;jettySize=auto;html=1;exitX=0;exitY=0.5;exitDx=0;exitDy=0;entryX=0.5;entryY=0;entryDx=0;entryDy=0;" edge="1" parent="1" source="BXSqrhUL6-4AqQqkL2Um-137" target="BXSqrhUL6-4AqQqkL2Um-139">
          <mxGeometry relative="1" as="geometry" />
        </mxCell>
        <mxCell id="BXSqrhUL6-4AqQqkL2Um-137" value="5" style="ellipse;whiteSpace=wrap;html=1;" vertex="1" parent="1">
          <mxGeometry x="100" y="530" width="40" height="30" as="geometry" />
        </mxCell>
        <mxCell id="BXSqrhUL6-4AqQqkL2Um-138" style="edgeStyle=orthogonalEdgeStyle;rounded=0;orthogonalLoop=1;jettySize=auto;html=1;exitX=0.5;exitY=1;exitDx=0;exitDy=0;entryX=0.5;entryY=0;entryDx=0;entryDy=0;" edge="1" parent="1" source="BXSqrhUL6-4AqQqkL2Um-139" target="BXSqrhUL6-4AqQqkL2Um-144">
          <mxGeometry relative="1" as="geometry" />
        </mxCell>
        <mxCell id="BXSqrhUL6-4AqQqkL2Um-139" value="4" style="ellipse;whiteSpace=wrap;html=1;" vertex="1" parent="1">
          <mxGeometry x="70" y="580" width="40" height="30" as="geometry" />
        </mxCell>
        <mxCell id="BXSqrhUL6-4AqQqkL2Um-140" value="" style="shape=flexArrow;endArrow=classic;html=1;rounded=0;" edge="1" parent="1">
          <mxGeometry width="50" height="50" relative="1" as="geometry">
            <mxPoint x="40" y="504.5" as="sourcePoint" />
            <mxPoint x="90" y="504.5" as="targetPoint" />
          </mxGeometry>
        </mxCell>
        <mxCell id="BXSqrhUL6-4AqQqkL2Um-141" style="edgeStyle=orthogonalEdgeStyle;rounded=0;orthogonalLoop=1;jettySize=auto;html=1;exitX=1;exitY=0.5;exitDx=0;exitDy=0;entryX=0.5;entryY=0;entryDx=0;entryDy=0;" edge="1" parent="1" source="BXSqrhUL6-4AqQqkL2Um-142" target="BXSqrhUL6-4AqQqkL2Um-143">
          <mxGeometry relative="1" as="geometry" />
        </mxCell>
        <mxCell id="BXSqrhUL6-4AqQqkL2Um-142" value="12" style="ellipse;whiteSpace=wrap;html=1;" vertex="1" parent="1">
          <mxGeometry x="230" y="580" width="40" height="30" as="geometry" />
        </mxCell>
        <mxCell id="BXSqrhUL6-4AqQqkL2Um-143" value="18" style="ellipse;whiteSpace=wrap;html=1;" vertex="1" parent="1">
          <mxGeometry x="279" y="635" width="40" height="30" as="geometry" />
        </mxCell>
        <mxCell id="BXSqrhUL6-4AqQqkL2Um-144" value="1" style="ellipse;whiteSpace=wrap;html=1;" vertex="1" parent="1">
          <mxGeometry x="59" y="635" width="40" height="30" as="geometry" />
        </mxCell>
        <mxCell id="BXSqrhUL6-4AqQqkL2Um-145" value="7" style="ellipse;whiteSpace=wrap;html=1;" vertex="1" parent="1">
          <mxGeometry x="140" y="580" width="40" height="30" as="geometry" />
        </mxCell>
        <mxCell id="BXSqrhUL6-4AqQqkL2Um-147" style="edgeStyle=orthogonalEdgeStyle;rounded=0;orthogonalLoop=1;jettySize=auto;html=1;exitX=1;exitY=0.5;exitDx=0;exitDy=0;entryX=0.5;entryY=0;entryDx=0;entryDy=0;" edge="1" parent="1" source="BXSqrhUL6-4AqQqkL2Um-149" target="BXSqrhUL6-4AqQqkL2Um-152">
          <mxGeometry relative="1" as="geometry" />
        </mxCell>
        <mxCell id="BXSqrhUL6-4AqQqkL2Um-148" style="edgeStyle=orthogonalEdgeStyle;rounded=0;orthogonalLoop=1;jettySize=auto;html=1;exitX=0;exitY=0.5;exitDx=0;exitDy=0;entryX=0.5;entryY=0;entryDx=0;entryDy=0;" edge="1" parent="1" source="BXSqrhUL6-4AqQqkL2Um-149" target="BXSqrhUL6-4AqQqkL2Um-154">
          <mxGeometry relative="1" as="geometry" />
        </mxCell>
        <mxCell id="BXSqrhUL6-4AqQqkL2Um-149" value="6" style="ellipse;whiteSpace=wrap;html=1;" vertex="1" parent="1">
          <mxGeometry x="435" y="490" width="40" height="30" as="geometry" />
        </mxCell>
        <mxCell id="BXSqrhUL6-4AqQqkL2Um-150" style="edgeStyle=orthogonalEdgeStyle;rounded=0;orthogonalLoop=1;jettySize=auto;html=1;exitX=1;exitY=0.5;exitDx=0;exitDy=0;entryX=0.5;entryY=0;entryDx=0;entryDy=0;" edge="1" parent="1" source="BXSqrhUL6-4AqQqkL2Um-152" target="BXSqrhUL6-4AqQqkL2Um-159">
          <mxGeometry relative="1" as="geometry" />
        </mxCell>
        <mxCell id="BXSqrhUL6-4AqQqkL2Um-151" style="edgeStyle=orthogonalEdgeStyle;rounded=0;orthogonalLoop=1;jettySize=auto;html=1;exitX=0;exitY=0.5;exitDx=0;exitDy=0;entryX=0.5;entryY=0;entryDx=0;entryDy=0;" edge="1" parent="1" source="BXSqrhUL6-4AqQqkL2Um-152" target="BXSqrhUL6-4AqQqkL2Um-162">
          <mxGeometry relative="1" as="geometry" />
        </mxCell>
        <mxCell id="BXSqrhUL6-4AqQqkL2Um-152" value="9" style="ellipse;whiteSpace=wrap;html=1;" vertex="1" parent="1">
          <mxGeometry x="475" y="530" width="40" height="30" as="geometry" />
        </mxCell>
        <mxCell id="BXSqrhUL6-4AqQqkL2Um-153" style="edgeStyle=orthogonalEdgeStyle;rounded=0;orthogonalLoop=1;jettySize=auto;html=1;exitX=0;exitY=0.5;exitDx=0;exitDy=0;entryX=0.5;entryY=0;entryDx=0;entryDy=0;" edge="1" parent="1" source="BXSqrhUL6-4AqQqkL2Um-154" target="BXSqrhUL6-4AqQqkL2Um-156">
          <mxGeometry relative="1" as="geometry" />
        </mxCell>
        <mxCell id="BXSqrhUL6-4AqQqkL2Um-154" value="5" style="ellipse;whiteSpace=wrap;html=1;" vertex="1" parent="1">
          <mxGeometry x="400" y="530" width="40" height="30" as="geometry" />
        </mxCell>
        <mxCell id="BXSqrhUL6-4AqQqkL2Um-155" style="edgeStyle=orthogonalEdgeStyle;rounded=0;orthogonalLoop=1;jettySize=auto;html=1;exitX=0.5;exitY=1;exitDx=0;exitDy=0;entryX=0.5;entryY=0;entryDx=0;entryDy=0;" edge="1" parent="1" source="BXSqrhUL6-4AqQqkL2Um-156" target="BXSqrhUL6-4AqQqkL2Um-161">
          <mxGeometry relative="1" as="geometry" />
        </mxCell>
        <mxCell id="BXSqrhUL6-4AqQqkL2Um-156" value="4" style="ellipse;whiteSpace=wrap;html=1;" vertex="1" parent="1">
          <mxGeometry x="370" y="580" width="40" height="30" as="geometry" />
        </mxCell>
        <mxCell id="BXSqrhUL6-4AqQqkL2Um-157" value="" style="shape=flexArrow;endArrow=classic;html=1;rounded=0;" edge="1" parent="1">
          <mxGeometry width="50" height="50" relative="1" as="geometry">
            <mxPoint x="340" y="504.5" as="sourcePoint" />
            <mxPoint x="390" y="504.5" as="targetPoint" />
          </mxGeometry>
        </mxCell>
        <mxCell id="BXSqrhUL6-4AqQqkL2Um-158" style="edgeStyle=orthogonalEdgeStyle;rounded=0;orthogonalLoop=1;jettySize=auto;html=1;exitX=1;exitY=0.5;exitDx=0;exitDy=0;entryX=0.5;entryY=0;entryDx=0;entryDy=0;" edge="1" parent="1" source="BXSqrhUL6-4AqQqkL2Um-159" target="BXSqrhUL6-4AqQqkL2Um-160">
          <mxGeometry relative="1" as="geometry" />
        </mxCell>
        <mxCell id="BXSqrhUL6-4AqQqkL2Um-159" value="12" style="ellipse;whiteSpace=wrap;html=1;" vertex="1" parent="1">
          <mxGeometry x="530" y="580" width="40" height="30" as="geometry" />
        </mxCell>
        <mxCell id="BXSqrhUL6-4AqQqkL2Um-160" value="18" style="ellipse;whiteSpace=wrap;html=1;" vertex="1" parent="1">
          <mxGeometry x="579" y="635" width="40" height="30" as="geometry" />
        </mxCell>
        <mxCell id="BXSqrhUL6-4AqQqkL2Um-161" value="1" style="ellipse;whiteSpace=wrap;html=1;" vertex="1" parent="1">
          <mxGeometry x="359" y="635" width="40" height="30" as="geometry" />
        </mxCell>
        <mxCell id="BXSqrhUL6-4AqQqkL2Um-164" style="edgeStyle=orthogonalEdgeStyle;rounded=0;orthogonalLoop=1;jettySize=auto;html=1;exitX=1;exitY=0.5;exitDx=0;exitDy=0;entryX=0.5;entryY=0;entryDx=0;entryDy=0;" edge="1" parent="1" source="BXSqrhUL6-4AqQqkL2Um-162" target="BXSqrhUL6-4AqQqkL2Um-163">
          <mxGeometry relative="1" as="geometry" />
        </mxCell>
        <mxCell id="BXSqrhUL6-4AqQqkL2Um-162" value="7" style="ellipse;whiteSpace=wrap;html=1;" vertex="1" parent="1">
          <mxGeometry x="440" y="580" width="40" height="30" as="geometry" />
        </mxCell>
        <mxCell id="BXSqrhUL6-4AqQqkL2Um-163" value="8" style="ellipse;whiteSpace=wrap;html=1;" vertex="1" parent="1">
          <mxGeometry x="480" y="630" width="40" height="30" as="geometry" />
        </mxCell>
        <mxCell id="BXSqrhUL6-4AqQqkL2Um-165" style="edgeStyle=orthogonalEdgeStyle;rounded=0;orthogonalLoop=1;jettySize=auto;html=1;exitX=1;exitY=0.5;exitDx=0;exitDy=0;entryX=0.5;entryY=0;entryDx=0;entryDy=0;" edge="1" parent="1" source="BXSqrhUL6-4AqQqkL2Um-167" target="BXSqrhUL6-4AqQqkL2Um-170">
          <mxGeometry relative="1" as="geometry" />
        </mxCell>
        <mxCell id="BXSqrhUL6-4AqQqkL2Um-166" style="edgeStyle=orthogonalEdgeStyle;rounded=0;orthogonalLoop=1;jettySize=auto;html=1;exitX=0;exitY=0.5;exitDx=0;exitDy=0;entryX=0.5;entryY=0;entryDx=0;entryDy=0;" edge="1" parent="1" source="BXSqrhUL6-4AqQqkL2Um-167" target="BXSqrhUL6-4AqQqkL2Um-172">
          <mxGeometry relative="1" as="geometry" />
        </mxCell>
        <mxCell id="BXSqrhUL6-4AqQqkL2Um-167" value="6" style="ellipse;whiteSpace=wrap;html=1;" vertex="1" parent="1">
          <mxGeometry x="756" y="507.5" width="40" height="30" as="geometry" />
        </mxCell>
        <mxCell id="BXSqrhUL6-4AqQqkL2Um-168" style="edgeStyle=orthogonalEdgeStyle;rounded=0;orthogonalLoop=1;jettySize=auto;html=1;exitX=1;exitY=0.5;exitDx=0;exitDy=0;entryX=0.5;entryY=0;entryDx=0;entryDy=0;" edge="1" parent="1" source="BXSqrhUL6-4AqQqkL2Um-170" target="BXSqrhUL6-4AqQqkL2Um-177">
          <mxGeometry relative="1" as="geometry" />
        </mxCell>
        <mxCell id="BXSqrhUL6-4AqQqkL2Um-169" style="edgeStyle=orthogonalEdgeStyle;rounded=0;orthogonalLoop=1;jettySize=auto;html=1;exitX=0;exitY=0.5;exitDx=0;exitDy=0;entryX=0.5;entryY=0;entryDx=0;entryDy=0;" edge="1" parent="1" source="BXSqrhUL6-4AqQqkL2Um-170" target="BXSqrhUL6-4AqQqkL2Um-181">
          <mxGeometry relative="1" as="geometry" />
        </mxCell>
        <mxCell id="BXSqrhUL6-4AqQqkL2Um-170" value="9" style="ellipse;whiteSpace=wrap;html=1;" vertex="1" parent="1">
          <mxGeometry x="796" y="547.5" width="40" height="30" as="geometry" />
        </mxCell>
        <mxCell id="BXSqrhUL6-4AqQqkL2Um-171" style="edgeStyle=orthogonalEdgeStyle;rounded=0;orthogonalLoop=1;jettySize=auto;html=1;exitX=0;exitY=0.5;exitDx=0;exitDy=0;entryX=0.5;entryY=0;entryDx=0;entryDy=0;" edge="1" parent="1" source="BXSqrhUL6-4AqQqkL2Um-172" target="BXSqrhUL6-4AqQqkL2Um-174">
          <mxGeometry relative="1" as="geometry" />
        </mxCell>
        <mxCell id="BXSqrhUL6-4AqQqkL2Um-172" value="5" style="ellipse;whiteSpace=wrap;html=1;" vertex="1" parent="1">
          <mxGeometry x="721" y="547.5" width="40" height="30" as="geometry" />
        </mxCell>
        <mxCell id="BXSqrhUL6-4AqQqkL2Um-173" style="edgeStyle=orthogonalEdgeStyle;rounded=0;orthogonalLoop=1;jettySize=auto;html=1;exitX=0.5;exitY=1;exitDx=0;exitDy=0;entryX=0.5;entryY=0;entryDx=0;entryDy=0;" edge="1" parent="1" source="BXSqrhUL6-4AqQqkL2Um-174" target="BXSqrhUL6-4AqQqkL2Um-179">
          <mxGeometry relative="1" as="geometry" />
        </mxCell>
        <mxCell id="BXSqrhUL6-4AqQqkL2Um-174" value="4" style="ellipse;whiteSpace=wrap;html=1;" vertex="1" parent="1">
          <mxGeometry x="691" y="597.5" width="40" height="30" as="geometry" />
        </mxCell>
        <mxCell id="BXSqrhUL6-4AqQqkL2Um-175" value="" style="shape=flexArrow;endArrow=classic;html=1;rounded=0;" edge="1" parent="1">
          <mxGeometry width="50" height="50" relative="1" as="geometry">
            <mxPoint x="661" y="522" as="sourcePoint" />
            <mxPoint x="711" y="522" as="targetPoint" />
          </mxGeometry>
        </mxCell>
        <mxCell id="BXSqrhUL6-4AqQqkL2Um-176" style="edgeStyle=orthogonalEdgeStyle;rounded=0;orthogonalLoop=1;jettySize=auto;html=1;exitX=1;exitY=0.5;exitDx=0;exitDy=0;entryX=0.5;entryY=0;entryDx=0;entryDy=0;" edge="1" parent="1" source="BXSqrhUL6-4AqQqkL2Um-177" target="BXSqrhUL6-4AqQqkL2Um-178">
          <mxGeometry relative="1" as="geometry" />
        </mxCell>
        <mxCell id="BXSqrhUL6-4AqQqkL2Um-184" style="edgeStyle=orthogonalEdgeStyle;rounded=0;orthogonalLoop=1;jettySize=auto;html=1;exitX=0;exitY=0.5;exitDx=0;exitDy=0;entryX=0.5;entryY=0;entryDx=0;entryDy=0;" edge="1" parent="1" source="BXSqrhUL6-4AqQqkL2Um-177" target="BXSqrhUL6-4AqQqkL2Um-183">
          <mxGeometry relative="1" as="geometry" />
        </mxCell>
        <mxCell id="BXSqrhUL6-4AqQqkL2Um-177" value="12" style="ellipse;whiteSpace=wrap;html=1;" vertex="1" parent="1">
          <mxGeometry x="890" y="597.5" width="40" height="30" as="geometry" />
        </mxCell>
        <mxCell id="BXSqrhUL6-4AqQqkL2Um-178" value="18" style="ellipse;whiteSpace=wrap;html=1;" vertex="1" parent="1">
          <mxGeometry x="960" y="660" width="40" height="30" as="geometry" />
        </mxCell>
        <mxCell id="BXSqrhUL6-4AqQqkL2Um-179" value="1" style="ellipse;whiteSpace=wrap;html=1;" vertex="1" parent="1">
          <mxGeometry x="680" y="652.5" width="40" height="30" as="geometry" />
        </mxCell>
        <mxCell id="BXSqrhUL6-4AqQqkL2Um-180" style="edgeStyle=orthogonalEdgeStyle;rounded=0;orthogonalLoop=1;jettySize=auto;html=1;exitX=1;exitY=0.5;exitDx=0;exitDy=0;entryX=0.5;entryY=0;entryDx=0;entryDy=0;" edge="1" parent="1" source="BXSqrhUL6-4AqQqkL2Um-181" target="BXSqrhUL6-4AqQqkL2Um-182">
          <mxGeometry relative="1" as="geometry" />
        </mxCell>
        <mxCell id="BXSqrhUL6-4AqQqkL2Um-181" value="7" style="ellipse;whiteSpace=wrap;html=1;" vertex="1" parent="1">
          <mxGeometry x="761" y="597.5" width="40" height="30" as="geometry" />
        </mxCell>
        <mxCell id="BXSqrhUL6-4AqQqkL2Um-182" value="8" style="ellipse;whiteSpace=wrap;html=1;" vertex="1" parent="1">
          <mxGeometry x="801" y="647.5" width="40" height="30" as="geometry" />
        </mxCell>
        <mxCell id="BXSqrhUL6-4AqQqkL2Um-183" value="11" style="ellipse;whiteSpace=wrap;html=1;" vertex="1" parent="1">
          <mxGeometry x="870" y="647.5" width="40" height="30" as="geometry" />
        </mxCell>
        <mxCell id="BXSqrhUL6-4AqQqkL2Um-185" value="A" style="text;html=1;strokeColor=none;fillColor=none;align=center;verticalAlign=middle;whiteSpace=wrap;rounded=0;" vertex="1" parent="1">
          <mxGeometry y="110" width="60" height="30" as="geometry" />
        </mxCell>
        <mxCell id="BXSqrhUL6-4AqQqkL2Um-186" value="&lt;div style=&quot;background-color: rgb(31, 31, 31); font-family: Consolas, &amp;quot;Courier New&amp;quot;, monospace; font-size: 14px; line-height: 19px;&quot;&gt;&lt;div style=&quot;color: rgb(204, 204, 204);&quot;&gt;// BST&lt;/div&gt;&lt;div style=&quot;color: rgb(204, 204, 204);&quot;&gt;int max = 0;&lt;/div&gt;&lt;div style=&quot;color: rgb(204, 204, 204);&quot;&gt;&lt;span style=&quot;color: #569cd6;&quot;&gt;bool&lt;/span&gt; &lt;span style=&quot;color: #dcdcaa;&quot;&gt;searchValue&lt;/span&gt;(&lt;span style=&quot;color: #4ec9b0;&quot;&gt;Node&lt;/span&gt;&lt;span style=&quot;color: #569cd6;&quot;&gt;*&lt;/span&gt; &lt;span style=&quot;color: #9cdcfe;&quot;&gt;root&lt;/span&gt;){&lt;/div&gt;&lt;div style=&quot;&quot;&gt;&lt;font color=&quot;#cccccc&quot;&gt;&amp;nbsp; &amp;nbsp; &lt;/font&gt;&lt;span style=&quot;color: rgb(197, 134, 192);&quot;&gt;if&lt;/span&gt;&lt;font color=&quot;#cccccc&quot;&gt;(&lt;/font&gt;&lt;span style=&quot;color: rgb(156, 220, 254);&quot;&gt;root-&amp;gt;right&lt;/span&gt; &lt;span style=&quot;color: rgb(212, 212, 212);&quot;&gt;==&lt;/span&gt; &lt;span style=&quot;color: rgb(86, 156, 214);&quot;&gt;nullptr&lt;/span&gt;&lt;font color=&quot;#cccccc&quot;&gt;) &lt;/font&gt;&lt;span style=&quot;color: rgb(197, 134, 192);&quot;&gt;return&lt;/span&gt;&lt;font color=&quot;#cccccc&quot;&gt;&amp;nbsp;&lt;/font&gt;&lt;font color=&quot;#569cd6&quot;&gt;root-&amp;gt;data&lt;/font&gt;&lt;font color=&quot;#cccccc&quot;&gt;;&lt;/font&gt;&lt;/div&gt;&lt;div style=&quot;&quot;&gt;&lt;span style=&quot;color: rgb(204, 204, 204);&quot;&gt;&amp;nbsp; &amp;nbsp; &lt;/span&gt;&lt;font color=&quot;#c586c0&quot;&gt;max = searchValue(root-&amp;gt;right);&lt;/font&gt;&lt;/div&gt;&lt;div style=&quot;&quot;&gt;&lt;span style=&quot;color: rgb(204, 204, 204);&quot;&gt;&amp;nbsp; &amp;nbsp; &lt;span style=&quot;color: #c586c0;&quot;&gt;return&lt;/span&gt;&amp;nbsp;&lt;/span&gt;&lt;font color=&quot;#569cd6&quot;&gt;max&lt;/font&gt;&lt;font color=&quot;#cccccc&quot;&gt;;&lt;/font&gt;&lt;/div&gt;&lt;div style=&quot;color: rgb(204, 204, 204);&quot;&gt;}&lt;/div&gt;&lt;/div&gt;" style="text;html=1;strokeColor=none;fillColor=none;align=left;verticalAlign=middle;whiteSpace=wrap;rounded=0;" vertex="1" parent="1">
          <mxGeometry x="70" y="677.5" width="350" height="350" as="geometry" />
        </mxCell>
        <mxCell id="BXSqrhUL6-4AqQqkL2Um-188" value="&lt;div style=&quot;background-color: rgb(31, 31, 31); font-family: Consolas, &amp;quot;Courier New&amp;quot;, monospace; font-size: 14px; line-height: 19px;&quot;&gt;&lt;div style=&quot;color: rgb(204, 204, 204);&quot;&gt;// BST&lt;/div&gt;&lt;div style=&quot;color: rgb(204, 204, 204);&quot;&gt;int min= 0;&lt;/div&gt;&lt;div style=&quot;color: rgb(204, 204, 204);&quot;&gt;&lt;span style=&quot;color: #569cd6;&quot;&gt;bool&lt;/span&gt; &lt;span style=&quot;color: #dcdcaa;&quot;&gt;searchValue&lt;/span&gt;(&lt;span style=&quot;color: #4ec9b0;&quot;&gt;Node&lt;/span&gt;&lt;span style=&quot;color: #569cd6;&quot;&gt;*&lt;/span&gt; &lt;span style=&quot;color: #9cdcfe;&quot;&gt;root&lt;/span&gt;){&lt;/div&gt;&lt;div style=&quot;&quot;&gt;&lt;font color=&quot;#cccccc&quot;&gt;&amp;nbsp; &amp;nbsp; &lt;/font&gt;&lt;span style=&quot;color: rgb(197, 134, 192);&quot;&gt;if&lt;/span&gt;&lt;font color=&quot;#cccccc&quot;&gt;(&lt;/font&gt;&lt;span style=&quot;color: rgb(156, 220, 254);&quot;&gt;root-&amp;gt;left&lt;/span&gt;&lt;span style=&quot;color: rgb(212, 212, 212);&quot;&gt;==&lt;/span&gt; &lt;span style=&quot;color: rgb(86, 156, 214);&quot;&gt;nullptr&lt;/span&gt;&lt;font color=&quot;#cccccc&quot;&gt;) &lt;/font&gt;&lt;span style=&quot;color: rgb(197, 134, 192);&quot;&gt;return&lt;/span&gt;&lt;font color=&quot;#cccccc&quot;&gt;&amp;nbsp;&lt;/font&gt;&lt;font color=&quot;#569cd6&quot;&gt;root-&amp;gt;data&lt;/font&gt;&lt;font color=&quot;#cccccc&quot;&gt;;&lt;/font&gt;&lt;/div&gt;&lt;div style=&quot;&quot;&gt;&lt;span style=&quot;color: rgb(204, 204, 204);&quot;&gt;&amp;nbsp; &amp;nbsp; min&amp;nbsp;&lt;/span&gt;&lt;font color=&quot;#c586c0&quot;&gt;= searchValue(root-&amp;gt;left);&lt;/font&gt;&lt;/div&gt;&lt;div style=&quot;&quot;&gt;&lt;span style=&quot;color: rgb(204, 204, 204);&quot;&gt;&amp;nbsp; &amp;nbsp; &lt;span style=&quot;color: #c586c0;&quot;&gt;return&lt;/span&gt;&amp;nbsp;&lt;/span&gt;&lt;font color=&quot;#569cd6&quot;&gt;min&lt;/font&gt;&lt;font color=&quot;#cccccc&quot;&gt;;&lt;/font&gt;&lt;/div&gt;&lt;div style=&quot;color: rgb(204, 204, 204);&quot;&gt;}&lt;/div&gt;&lt;/div&gt;" style="text;html=1;strokeColor=none;fillColor=none;align=left;verticalAlign=middle;whiteSpace=wrap;rounded=0;" vertex="1" parent="1">
          <mxGeometry x="530" y="680" width="350" height="350" as="geometry" />
        </mxCell>
        <mxCell id="BXSqrhUL6-4AqQqkL2Um-189" value="&lt;div style=&quot;color: rgb(204, 204, 204); background-color: rgb(31, 31, 31); font-family: Consolas, &amp;quot;Courier New&amp;quot;, monospace; font-size: 14px; line-height: 19px;&quot;&gt;&lt;div&gt;// remove max element&lt;/div&gt;&lt;div&gt;&lt;span style=&quot;color: #4ec9b0;&quot;&gt;Node&lt;/span&gt;&lt;span style=&quot;color: #569cd6;&quot;&gt;*&lt;/span&gt; &lt;span style=&quot;color: #dcdcaa;&quot;&gt;removeMaxElement&lt;/span&gt;(&lt;span style=&quot;color: #4ec9b0;&quot;&gt;Node&lt;/span&gt;&lt;span style=&quot;color: #569cd6;&quot;&gt;*&lt;/span&gt; &lt;span style=&quot;color: #9cdcfe;&quot;&gt;root&lt;/span&gt;){&lt;/div&gt;&lt;div&gt;&amp;nbsp; &amp;nbsp; &lt;span style=&quot;color: #c586c0;&quot;&gt;if&lt;/span&gt; (&lt;span style=&quot;color: #9cdcfe;&quot;&gt;root&lt;/span&gt; &lt;span style=&quot;color: #d4d4d4;&quot;&gt;==&lt;/span&gt; &lt;span style=&quot;color: #569cd6;&quot;&gt;nullptr&lt;/span&gt;) &lt;span style=&quot;color: #c586c0;&quot;&gt;return&lt;/span&gt; &lt;span style=&quot;color: #9cdcfe;&quot;&gt;root&lt;/span&gt;;&lt;/div&gt;&lt;div&gt;&amp;nbsp; &amp;nbsp; &lt;span style=&quot;color: #9cdcfe;&quot;&gt;root&lt;/span&gt;-&amp;gt;&lt;span style=&quot;color: #9cdcfe;&quot;&gt;right&lt;/span&gt; &lt;span style=&quot;color: #d4d4d4;&quot;&gt;=&lt;/span&gt; &lt;span style=&quot;color: #dcdcaa;&quot;&gt;removeMaxElement&lt;/span&gt;(&lt;span style=&quot;color: #9cdcfe;&quot;&gt;root&lt;/span&gt;-&amp;gt;&lt;span style=&quot;color: #9cdcfe;&quot;&gt;right&lt;/span&gt;);&lt;/div&gt;&lt;div&gt;&amp;nbsp; &amp;nbsp; &lt;span style=&quot;color: #c586c0;&quot;&gt;return&lt;/span&gt; &lt;span style=&quot;color: #9cdcfe;&quot;&gt;root&lt;/span&gt;;&lt;/div&gt;&lt;div&gt;}&lt;/div&gt;&lt;br&gt;&lt;div&gt;&lt;span style=&quot;color: #6a9955;&quot;&gt;// remove min element&lt;/span&gt;&lt;/div&gt;&lt;div&gt;&lt;span style=&quot;color: #4ec9b0;&quot;&gt;Node&lt;/span&gt;&lt;span style=&quot;color: #569cd6;&quot;&gt;*&lt;/span&gt; &lt;span style=&quot;color: #dcdcaa;&quot;&gt;removeMinElement&lt;/span&gt;(&lt;span style=&quot;color: #4ec9b0;&quot;&gt;Node&lt;/span&gt;&lt;span style=&quot;color: #569cd6;&quot;&gt;*&lt;/span&gt; &lt;span style=&quot;color: #9cdcfe;&quot;&gt;root&lt;/span&gt;){&lt;/div&gt;&lt;div&gt;&amp;nbsp; &amp;nbsp; &lt;span style=&quot;color: #c586c0;&quot;&gt;if&lt;/span&gt; (&lt;span style=&quot;color: #9cdcfe;&quot;&gt;root&lt;/span&gt; &lt;span style=&quot;color: #d4d4d4;&quot;&gt;==&lt;/span&gt; &lt;span style=&quot;color: #569cd6;&quot;&gt;nullptr&lt;/span&gt;) &lt;span style=&quot;color: #c586c0;&quot;&gt;return&lt;/span&gt; &lt;span style=&quot;color: #9cdcfe;&quot;&gt;root&lt;/span&gt;;&lt;/div&gt;&lt;div&gt;&amp;nbsp; &amp;nbsp; &lt;span style=&quot;color: #9cdcfe;&quot;&gt;root&lt;/span&gt;-&amp;gt;&lt;span style=&quot;color: #9cdcfe;&quot;&gt;left&lt;/span&gt; &lt;span style=&quot;color: #d4d4d4;&quot;&gt;=&lt;/span&gt; &lt;span style=&quot;color: #dcdcaa;&quot;&gt;removeMaxElement&lt;/span&gt;(&lt;span style=&quot;color: #9cdcfe;&quot;&gt;root&lt;/span&gt;-&amp;gt;&lt;span style=&quot;color: #9cdcfe;&quot;&gt;left&lt;/span&gt;);&lt;/div&gt;&lt;div&gt;&amp;nbsp; &amp;nbsp; &lt;span style=&quot;color: #c586c0;&quot;&gt;return&lt;/span&gt; &lt;span style=&quot;color: #9cdcfe;&quot;&gt;root&lt;/span&gt;;&lt;/div&gt;&lt;div&gt;}&lt;/div&gt;&lt;/div&gt;" style="text;html=1;strokeColor=none;fillColor=none;align=left;verticalAlign=middle;whiteSpace=wrap;rounded=0;" vertex="1" parent="1">
          <mxGeometry x="135" y="1030" width="705" height="230" as="geometry" />
        </mxCell>
      </root>
    </mxGraphModel>
  </diagram>
</mxfile>
